<svg xmlns="http://www.w3.org/2000/svg" viewBox="0 0 200 240">
  <defs>
    <path id="topArc" d="M 35,130 A 75,95 0 0,1 165,130"/>
    <path id="bottomArc" d="M 155,175 A 70,90 0 0,1 45,175"/>
  </defs>
  <ellipse cx="100" cy="120" rx="92" ry="112" fill="#4A5D3A"/>
  <ellipse cx="100" cy="120" rx="88" ry="108" fill="none" stroke="#E8DFC8" stroke-width="1.8"/>
  <ellipse cx="100" cy="120" rx="78" ry="98" fill="none" stroke="#E8DFC8" stroke-width="0.6" opacity="0.5"/>
  <text font-family="'Cormorant Garamond',Georgia,serif" font-size="11.5" fill="#E8DFC8" letter-spacing="3.5" font-style="italic">
    <textPath href="#topArc" startOffset="50%" text-anchor="middle">TORTS  &amp;  TWIRLS</textPath>
  </text>
  <text font-family="'Cormorant Garamond',Georgia,serif" font-size="12.5" fill="#E8DFC8" letter-spacing="7">
    <textPath href="#bottomArc" startOffset="50%" text-anchor="middle">INDIA</textPath>
  </text>
  <line x1="28" y1="142" x2="55" y2="142" stroke="#E8DFC8" stroke-width="0.5" stroke-dasharray="3,2"/>
  <line x1="145" y1="142" x2="172" y2="142" stroke="#E8DFC8" stroke-width="0.5" stroke-dasharray="3,2"/>
  <g transform="translate(100, 55)" fill="#E8DFC8">
    <path d="M-1.5,48 L-3,75 L3,75 L1.5,48 Z" opacity="0.9"/>
    <path d="M-4,72 C-4,72 -6,76 0,78 C6,76 4,72 4,72 Z" opacity="0.6"/>
    <path d="M0,48 C-4,40 -28,25 -38,15 C-28,22 -8,35 0,42 Z" opacity="0.85"/>
    <path d="M0,48 C4,40 28,25 38,15 C28,22 8,35 0,42 Z" opacity="0.85"/>
    <path d="M0,45 C-6,35 -35,15 -42,0 C-30,12 -8,30 0,38 Z" opacity="0.8"/>
    <path d="M0,45 C6,35 35,15 42,0 C30,12 8,30 0,38 Z" opacity="0.8"/>
    <path d="M0,42 C-5,28 -30,0 -32,-15 C-22,0 -6,22 0,35 Z" opacity="0.75"/>
    <path d="M0,42 C5,28 30,0 32,-15 C22,0 6,22 0,35 Z" opacity="0.75"/>
    <path d="M0,40 C-2,25 -15,-10 -10,-25 C-5,-8 -2,18 0,32 Z" opacity="0.7"/>
    <path d="M0,40 C2,25 15,-10 10,-25 C5,-8 2,18 0,32 Z" opacity="0.7"/>
    <path d="M0,38 C0,20 0,-10 0,-28 C2,-8 1,18 0,30 Z" opacity="0.65"/>
  </g>
  <text x="100" y="160" font-family="'Cormorant Garamond',Georgia,serif" font-size="42" fill="#E8DFC8" text-anchor="middle" font-style="italic" font-weight="400" letter-spacing="2">T&amp;T</text>
</svg>
